# xmcd
# 
# Track frame offsets:
#     187
#     32860
#     64987
#     84482
#     96747
#     123352
#     140750
#     158390
# 
# Disc length: 2465
# 
# Revision: 1
# Processed by: cddbd v1.5.2PL0 Copyright (c) Steve Scherf et al.
# Submitted via: BonkEnc v1.0.6
# 
DISCID=6d099f08
DTITLE=渡辺貞夫 - My Dear Life
DYEAR=1977
DGENRE=Fusion
TTITLE0=Massai Talk
TTITLE1=Safari
TTITLE2=Hunting World
TTITLE3=L.A.Sunset
TTITLE4=Samba Em Praia
TTITLE5=Music Break
TTITLE6=Malaika
TTITLE7=My Dear Life
EXTD=
EXTT0=
EXTT1=
EXTT2=
EXTT3=
EXTT4=
EXTT5=
EXTT6=
EXTT7=
PLAYORDER=
